<?xml version="1.0" encoding="iso-8859-1"?>
<!-- Generator: Adobe Illustrator 19.0.0, SVG Export Plug-In . SVG Version: 6.00 Build 0)  -->
<svg version="1.1" id="Capa_1" xmlns="http://www.w3.org/2000/svg" xmlns:xlink="http://www.w3.org/1999/xlink" x="0px" y="0px"
	 viewBox="0 0 512.003 512.003" style="enable-background:new 0 0 512.003 512.003;" xml:space="preserve">
<g>
	<g>
		<path d="M362.668,0H149.335c-23.521,0-42.667,19.135-42.667,42.667v458.667c0,4.063,2.313,7.771,5.958,9.573
			c3.688,1.792,8,1.365,11.208-1.115l132.167-101.667l132.167,101.667c1.896,1.458,4.188,2.208,6.5,2.208
			c1.604,0,3.208-0.365,4.708-1.094c3.646-1.802,5.958-5.51,5.958-9.573V42.667C405.335,19.135,386.189,0,362.668,0z
			 M384.001,479.667l-121.5-93.458c-1.917-1.469-4.208-2.208-6.5-2.208s-4.583,0.74-6.5,2.208l-121.5,93.458v-437
			c0-11.76,9.563-21.333,21.333-21.333h213.333c11.771,0,21.333,9.573,21.333,21.333V479.667z"/>
	</g>
</g>
<g>
</g>
<g>
</g>
<g>
</g>
<g>
</g>
<g>
</g>
<g>
</g>
<g>
</g>
<g>
</g>
<g>
</g>
<g>
</g>
<g>
</g>
<g>
</g>
<g>
</g>
<g>
</g>
<g>
</g>
</svg>
